<?xml version="1.0" encoding="UTF-8"?>
<svg version="1.1" xmlns="http://www.w3.org/2000/svg" width="2000" height="398">
<path d="M0 0 C1.02817841 -0.00990463 2.05635681 -0.01980927 3.11569214 -0.03001404 C4.80788879 -0.02326157 4.80788879 -0.02326157 6.53427124 -0.01637268 C7.72350189 -0.02323593 8.91273254 -0.03009918 10.13800049 -0.03717041 C13.40810399 -0.05236845 16.67785155 -0.05391825 19.94797564 -0.04822803 C22.69456213 -0.04513123 25.44109757 -0.05123702 28.18767679 -0.05726677 C34.6951785 -0.07134051 41.20254918 -0.0697389 47.71005249 -0.05836487 C54.35978377 -0.04699665 61.00910639 -0.06075921 67.65878356 -0.08776134 C73.40443857 -0.11019486 79.14996808 -0.11649137 84.89566362 -0.11068493 C88.3097998 -0.10736494 91.72367713 -0.10938377 95.13777542 -0.12693596 C138.37056607 -0.29809982 179.29851239 9.26719934 213.02401733 37.38768005 C213.53561401 37.81274841 214.04721069 38.23781677 214.5743103 38.67576599 C240.10188693 60.19568311 255.01026767 91.50159085 259.02401733 124.38768005 C259.17547505 127.17576149 259.21107835 129.95912065 259.22714233 132.7509613 C259.23284241 133.54181625 259.23854248 134.3326712 259.24441528 135.14749146 C259.25381986 136.81909368 259.26038109 138.49071406 259.26425171 140.16233826 C259.27384396 142.6551245 259.30486227 145.14704384 259.33651733 147.63963318 C259.43395374 162.26760179 257.69300469 176.50304565 253.33651733 190.51268005 C253.08233032 191.33977478 252.82814331 192.16686951 252.56625366 193.01902771 C241.7963446 226.56337782 216.94379678 253.37063435 185.99691772 269.53611755 C155.26134111 284.87038188 122.99236799 288.63280842 89.13339233 288.94236755 C87.1316918 288.9639647 85.12999127 288.98556546 83.12829518 289.00757134 C76.86557369 289.07594441 70.6028137 289.13372391 64.3399353 289.18553162 C57.89103531 289.23914744 51.442643 289.31493919 44.99409652 289.40061367 C39.43037995 289.47353679 33.86664258 289.53096486 28.30263352 289.57634175 C24.9904019 289.60362722 21.67861347 289.63907179 18.36660004 289.68653488 C14.68814999 289.73731245 11.01036686 289.76275114 7.33163452 289.78172302 C6.23971298 289.80231277 5.14779144 289.82290253 4.02278137 289.84411621 C2.52204826 289.84415398 2.52204826 289.84415398 0.99099731 289.8441925 C-0.31074369 289.85688832 -0.31074369 289.85688832 -1.6387825 289.86984062 C-4.80833131 289.21596789 -6.00079485 287.90166034 -7.97598267 285.38768005 C-8.47598267 281.88768005 -8.47598267 281.88768005 -7.97598267 278.38768005 C-5.18414057 274.8817954 -2.93546668 273.83043241 1.39901733 272.95018005 C6.61464057 271.65670549 9.35953272 270.32700102 13.02401733 266.38768005 C15.64259454 261.9362889 16.68298648 257.83500583 17.19633484 252.75540161 C17.27610481 252.01740536 17.35587477 251.27940912 17.43806201 250.51904935 C18.32456359 241.5247767 18.29658711 232.5327815 18.26693726 223.50413513 C18.26801323 221.57362809 18.26995656 219.64312137 18.27268982 217.71261597 C18.2774901 212.52273286 18.26994378 207.33293727 18.25973678 202.14306474 C18.25087707 196.68307505 18.25271524 191.22308746 18.25309753 185.76309204 C18.25216448 176.60188861 18.24352839 167.44071853 18.22982788 158.27952576 C18.21409218 147.7190609 18.20883051 137.15863248 18.20956343 126.59815675 C18.21024112 115.30458973 18.20328966 104.01103656 18.19411683 92.71747375 C18.19199546 89.48400999 18.19127702 86.25054851 18.19087791 83.01708412 C18.18986643 77.92060472 18.18370467 72.82415537 18.17371178 67.72768593 C18.17081489 65.86782516 18.16955563 64.00796093 18.17013931 62.14809799 C19.43901186 40.35475409 19.43901186 40.35475409 12.69198608 20.61424255 C8.37121418 16.30398348 3.58257524 15.22411154 -2.30410767 14.1259613 C-5.14795806 13.34016054 -6.27959619 12.77286775 -7.97598267 10.38768005 C-8.62830165 4.29936958 -8.62830165 4.29936958 -6.76354408 1.69316006 C-4.39468812 -0.03684713 -2.9213391 0.00794082 0 0 Z M77.02401733 11.70018005 C75.23701416 11.75214539 75.23701416 11.75214539 73.41390991 11.80516052 C59.12778 11.71624751 59.12778 11.71624751 46.33651733 16.76268005 C41.95684289 21.7342024 41.73514259 25.59006028 41.77005005 32.10203552 C41.76693007 32.9912844 41.76381009 33.88053328 41.76059556 34.79672909 C41.75260496 37.78284225 41.75894356 40.7687528 41.76522827 43.75486755 C41.76251873 45.89359659 41.758958 48.0323247 41.75460815 50.17105103 C41.74547314 55.98757327 41.74903417 61.80402473 41.75536633 67.62054825 C41.76042579 73.7101638 41.75573453 79.79977325 41.75259399 85.88938904 C41.74895198 96.12532133 41.7537573 106.36122479 41.76327515 116.59715271 C41.7741369 128.41446758 41.77065165 140.23171332 41.75962234 152.04902649 C41.75052838 162.20038441 41.74927519 172.35172159 41.75449967 182.50308228 C41.75761078 188.56315746 41.75805284 194.62320024 41.7514267 200.68327332 C41.74562404 206.38942995 41.74970341 212.09549814 41.76121521 217.80164528 C41.76384722 219.88970608 41.76312181 221.97777439 41.75868988 224.06583214 C41.63806114 246.37997921 41.63806114 246.37997921 50.14901733 266.63768005 C63.20492291 279.12593756 83.35794336 277.81566961 100.11923218 277.48094177 C137.20499124 276.29025763 171.63160479 266.12710219 199.02401733 240.38768005 C199.62729858 239.86045349 200.23057983 239.33322693 200.85214233 238.7900238 C221.11803723 220.27608711 231.73204934 187.09062055 233.13174438 160.32789612 C233.18719007 158.18202155 233.21475732 156.03814137 233.22714233 153.8915863 C233.23284241 153.09977463 233.23854248 152.30796295 233.24441528 151.49215698 C233.25380604 149.82233489 233.26037549 148.15249476 233.26425171 146.48265076 C233.27387245 143.98775278 233.30491695 141.49371062 233.33651733 138.99900818 C233.55655142 105.76151155 221.90329188 74.6344703 199.02401733 50.38768005 C166.48196722 17.89508594 121.23532169 10.29826823 77.02401733 11.70018005 Z " fill="#000000" transform="translate(1572.9759826660156,61.61231994628906)"/>
<path d="M0 0 C1.02817841 -0.00990463 2.05635681 -0.01980927 3.11569214 -0.03001404 C4.80788879 -0.02326157 4.80788879 -0.02326157 6.53427124 -0.01637268 C7.72350189 -0.02323593 8.91273254 -0.03009918 10.13800049 -0.03717041 C13.40810399 -0.05236845 16.67785155 -0.05391825 19.94797564 -0.04822803 C22.69456213 -0.04513123 25.44109757 -0.05123702 28.18767679 -0.05726677 C34.6951785 -0.07134051 41.20254918 -0.0697389 47.71005249 -0.05836487 C54.35978377 -0.04699665 61.00910639 -0.06075921 67.65878356 -0.08776134 C73.40443857 -0.11019486 79.14996808 -0.11649137 84.89566362 -0.11068493 C88.3097998 -0.10736494 91.72367713 -0.10938377 95.13777542 -0.12693596 C138.37056607 -0.29809982 179.29851239 9.26719934 213.02401733 37.38768005 C213.53561401 37.81274841 214.04721069 38.23781677 214.5743103 38.67576599 C240.10188693 60.19568311 255.01026767 91.50159085 259.02401733 124.38768005 C259.17547505 127.17576149 259.21107835 129.95912065 259.22714233 132.7509613 C259.23284241 133.54181625 259.23854248 134.3326712 259.24441528 135.14749146 C259.25381986 136.81909368 259.26038109 138.49071406 259.26425171 140.16233826 C259.27384396 142.6551245 259.30486227 145.14704384 259.33651733 147.63963318 C259.43395374 162.26760179 257.69300469 176.50304565 253.33651733 190.51268005 C253.08233032 191.33977478 252.82814331 192.16686951 252.56625366 193.01902771 C241.7963446 226.56337782 216.94379678 253.37063435 185.99691772 269.53611755 C155.26134111 284.87038188 122.99236799 288.63280842 89.13339233 288.94236755 C87.1316918 288.9639647 85.12999127 288.98556546 83.12829518 289.00757134 C76.86557369 289.07594441 70.6028137 289.13372391 64.3399353 289.18553162 C57.89103531 289.23914744 51.442643 289.31493919 44.99409652 289.40061367 C39.43037995 289.47353679 33.86664258 289.53096486 28.30263352 289.57634175 C24.9904019 289.60362722 21.67861347 289.63907179 18.36660004 289.68653488 C14.68814999 289.73731245 11.01036686 289.76275114 7.33163452 289.78172302 C6.23971298 289.80231277 5.14779144 289.82290253 4.02278137 289.84411621 C2.52204826 289.84415398 2.52204826 289.84415398 0.99099731 289.8441925 C-0.31074369 289.85688832 -0.31074369 289.85688832 -1.6387825 289.86984062 C-4.80833131 289.21596789 -6.00079485 287.90166034 -7.97598267 285.38768005 C-8.47598267 281.88768005 -8.47598267 281.88768005 -7.97598267 278.38768005 C-5.18414057 274.8817954 -2.93546668 273.83043241 1.39901733 272.95018005 C6.61464057 271.65670549 9.35953272 270.32700102 13.02401733 266.38768005 C15.64259454 261.9362889 16.68298648 257.83500583 17.19633484 252.75540161 C17.27610481 252.01740536 17.35587477 251.27940912 17.43806201 250.51904935 C18.32456359 241.5247767 18.29658711 232.5327815 18.26693726 223.50413513 C18.26801323 221.57362809 18.26995656 219.64312137 18.27268982 217.71261597 C18.2774901 212.52273286 18.26994378 207.33293727 18.25973678 202.14306474 C18.25087707 196.68307505 18.25271524 191.22308746 18.25309753 185.76309204 C18.25216448 176.60188861 18.24352839 167.44071853 18.22982788 158.27952576 C18.21409218 147.7190609 18.20883051 137.15863248 18.20956343 126.59815675 C18.21024112 115.30458973 18.20328966 104.01103656 18.19411683 92.71747375 C18.19199546 89.48400999 18.19127702 86.25054851 18.19087791 83.01708412 C18.18986643 77.92060472 18.18370467 72.82415537 18.17371178 67.72768593 C18.17081489 65.86782516 18.16955563 64.00796093 18.17013931 62.14809799 C19.43901186 40.35475409 19.43901186 40.35475409 12.69198608 20.61424255 C8.37121418 16.30398348 3.58257524 15.22411154 -2.30410767 14.1259613 C-5.14795806 13.34016054 -6.27959619 12.77286775 -7.97598267 10.38768005 C-8.62830165 4.29936958 -8.62830165 4.29936958 -6.76354408 1.69316006 C-4.39468812 -0.03684713 -2.9213391 0.00794082 0 0 Z M77.02401733 11.70018005 C75.23701416 11.75214539 75.23701416 11.75214539 73.41390991 11.80516052 C59.12778 11.71624751 59.12778 11.71624751 46.33651733 16.76268005 C41.95684289 21.7342024 41.73514259 25.59006028 41.77005005 32.10203552 C41.76693007 32.9912844 41.76381009 33.88053328 41.76059556 34.79672909 C41.75260496 37.78284225 41.75894356 40.7687528 41.76522827 43.75486755 C41.76251873 45.89359659 41.758958 48.0323247 41.75460815 50.17105103 C41.74547314 55.98757327 41.74903417 61.80402473 41.75536633 67.62054825 C41.76042579 73.7101638 41.75573453 79.79977325 41.75259399 85.88938904 C41.74895198 96.12532133 41.7537573 106.36122479 41.76327515 116.59715271 C41.7741369 128.41446758 41.77065165 140.23171332 41.75962234 152.04902649 C41.75052838 162.20038441 41.74927519 172.35172159 41.75449967 182.50308228 C41.75761078 188.56315746 41.75805284 194.62320024 41.7514267 200.68327332 C41.74562404 206.38942995 41.74970341 212.09549814 41.76121521 217.80164528 C41.76384722 219.88970608 41.76312181 221.97777439 41.75868988 224.06583214 C41.63806114 246.37997921 41.63806114 246.37997921 50.14901733 266.63768005 C63.20492291 279.12593756 83.35794336 277.81566961 100.11923218 277.48094177 C137.20499124 276.29025763 171.63160479 266.12710219 199.02401733 240.38768005 C199.62729858 239.86045349 200.23057983 239.33322693 200.85214233 238.7900238 C221.11803723 220.27608711 231.73204934 187.09062055 233.13174438 160.32789612 C233.18719007 158.18202155 233.21475732 156.03814137 233.22714233 153.8915863 C233.23284241 153.09977463 233.23854248 152.30796295 233.24441528 151.49215698 C233.25380604 149.82233489 233.26037549 148.15249476 233.26425171 146.48265076 C233.27387245 143.98775278 233.30491695 141.49371062 233.33651733 138.99900818 C233.55655142 105.76151155 221.90329188 74.6344703 199.02401733 50.38768005 C166.48196722 17.89508594 121.23532169 10.29826823 77.02401733 11.70018005 Z " fill="#000000" transform="translate(433.9759826660156,61.61231994628906)"/>
<path d="M0 0 C0.7938913 -0.0065712 1.58778259 -0.0131424 2.4057312 -0.01991272 C5.04506528 -0.03968754 7.68434191 -0.05132682 10.32373047 -0.0612793 C11.22866116 -0.06535482 12.13359184 -0.06943035 13.06594467 -0.07362938 C17.86948163 -0.09452274 22.67298988 -0.10880185 27.4765625 -0.11816406 C32.4008231 -0.12914537 37.32462135 -0.16343831 42.24872017 -0.20333576 C46.0633111 -0.2297199 49.87779644 -0.23787575 53.69247055 -0.24144554 C55.50464828 -0.24626732 57.31682273 -0.25775251 59.12891006 -0.27648354 C79.70933912 -0.47573448 97.74933268 3.15300773 113.11279297 17.9465332 C113.83982422 18.68258789 114.56685547 19.41864258 115.31591797 20.17700195 C115.93982422 20.77899414 116.56373047 21.38098633 117.20654297 22.0012207 C132.47173417 37.85088995 136.04477461 59.41943053 135.84204102 80.52685547 C135.20467507 103.22574052 128.5636831 122.9432373 111.95263672 139.0324707 C106.22833568 143.68823554 98.66953955 148.86969145 91.31591797 150.17700195 C91.86805239 154.61375248 92.97645077 157.94647167 95.05419922 161.89575195 C95.62066162 162.98098145 96.18712402 164.06621094 96.77075195 165.18432617 C97.38378174 166.33690918 97.99681152 167.48949219 98.62841797 168.67700195 C99.26837784 169.89432072 99.90777475 171.11193559 100.54663086 172.32983398 C104.84270635 180.49705169 109.25103957 188.60213684 113.70385742 196.68481445 C117.87238048 204.28216216 121.85526833 211.97018461 125.81591797 219.67700195 C131.6911463 231.10735197 137.72119532 242.44244776 143.94824219 253.68579102 C144.94084578 255.49381083 145.91989418 257.30929347 146.890625 259.12915039 C147.67928955 260.60303223 147.67928955 260.60303223 148.48388672 262.10668945 C148.95979248 263.00371582 149.43569824 263.90074219 149.92602539 264.82495117 C153.43844138 270.76884994 158.2203474 272.80778801 164.71435547 274.5637207 C167.92775809 275.32123453 171.15322832 275.98531737 174.40576172 276.55200195 C176.75003647 277.31904482 177.79656756 278.24877437 179.31591797 280.17700195 C179.81591797 283.11450195 179.81591797 283.11450195 179.31591797 286.17700195 C176.54112366 289.18302912 174.35050282 290.41730319 170.33935547 290.69458008 C168.7900919 290.72082599 167.2403224 290.72413801 165.69091797 290.70825195 C164.86640137 290.71207886 164.04188477 290.71590576 163.19238281 290.71984863 C161.45425186 290.72256292 159.71607972 290.71523554 157.97802734 290.69848633 C155.32410239 290.677068 152.67288417 290.6983025 150.01904297 290.72387695 C148.32632869 290.72123359 146.63361608 290.71610843 144.94091797 290.70825195 C144.15120605 290.71634888 143.36149414 290.7244458 142.54785156 290.73278809 C138.73054655 290.66811952 136.74537017 290.44073118 133.42211914 288.39990234 C131.44974795 286.31824711 130.20936416 284.65447604 128.99169922 282.0793457 C128.60836426 281.28818359 128.2250293 280.49702148 127.83007812 279.68188477 C127.43353027 278.83464844 127.03698242 277.98741211 126.62841797 277.11450195 C125.74878049 275.29458508 124.86722365 273.47559484 123.98388672 271.6574707 C123.53964355 270.73756348 123.09540039 269.81765625 122.63769531 268.86987305 C120.66031373 264.84133243 118.55513421 260.88494724 116.44091797 256.92700195 C112.6177559 249.73255423 108.9409284 242.47316455 105.31591797 235.17700195 C101.32585212 227.1461464 97.24332522 219.17724411 93.03466797 211.2590332 C89.86690377 205.27772764 86.82629583 199.23885139 83.81591797 193.17700195 C80.23494642 185.97576324 76.60857156 178.80226539 72.87841797 171.67700195 C72.47751953 170.90614258 72.07662109 170.1352832 71.66357422 169.34106445 C70.91307841 167.9161366 70.14570402 166.49992472 69.35888672 165.09472656 C68.40895557 163.3480718 67.59055979 161.53149632 66.78857422 159.7121582 C63.30519108 156.14072747 60.38909202 156.32775256 55.53076172 156.14770508 C54.42861328 156.13674805 53.32646484 156.12579102 52.19091797 156.11450195 C51.08103516 156.06874023 49.97115234 156.02297852 48.82763672 155.97583008 C44.55773573 155.82955538 44.55773573 155.82955538 40.31591797 156.17700195 C37.80757988 159.93950909 38.03444844 162.89374341 38.05712891 167.25 C38.05362427 168.07329803 38.05011963 168.89659607 38.04650879 169.74484253 C38.03768504 172.47622035 38.04354988 175.20734006 38.05029297 177.9387207 C38.04894483 179.84666493 38.04700306 181.75460882 38.04449463 183.66255188 C38.04154113 187.6733424 38.0458421 191.68404402 38.05517578 195.69482422 C38.06647028 200.79267718 38.06007651 205.89031721 38.04803085 210.98816204 C38.0407322 214.93743939 38.0431382 218.88666806 38.04828644 222.83594704 C38.04960618 224.7122888 38.04803508 226.58863522 38.04332733 228.46497154 C37.05202231 249.55496145 37.05202231 249.55496145 43.70263672 268.70043945 C47.77670787 272.42925034 52.95944799 273.8540491 58.19091797 275.23950195 C62.82219412 276.6288848 62.82219412 276.6288848 64.31591797 279.17700195 C64.81591797 282.61450195 64.81591797 282.61450195 64.31591797 286.17700195 C61.66738966 288.91934853 59.99286461 290.06794799 56.20471191 290.6782074 C55.04064819 290.67837357 53.87658447 290.67853973 52.67724609 290.67871094 C51.70796425 290.68681541 51.70796425 290.68681541 50.71910095 290.69508362 C48.5946495 290.70753561 46.47156282 290.69110587 44.34716797 290.6730957 C42.86413502 290.67325078 41.38110167 290.67474113 39.89807129 290.67750549 C36.7944948 290.67888789 33.69138135 290.66635889 30.58789062 290.64355469 C26.61657631 290.61516999 22.64603095 290.61790924 18.67465973 290.6306448 C15.61364209 290.63761129 12.55280111 290.62980173 9.49180603 290.61738777 C8.02783384 290.61288266 6.56384263 290.61252824 5.09986877 290.61645317 C3.05104935 290.61937508 1.00327671 290.60281407 -1.04541016 290.58105469 C-2.20947388 290.5756517 -3.3735376 290.57024872 -4.57287598 290.56468201 C-8.03712294 290.13301036 -9.92865017 289.29585089 -12.68408203 287.17700195 C-13.74658203 284.30200195 -13.74658203 284.30200195 -13.68408203 281.17700195 C-10.84012784 276.61973878 -8.38284731 275.39114592 -3.24658203 274.11450195 C2.35672159 272.70556002 6.50803289 271.11215655 9.64404297 266.02075195 C14.58590094 253.45670626 13.46520518 239.63298847 13.46118164 226.34204102 C13.46417868 224.35640399 13.46758245 222.37076754 13.47135925 220.38513184 C13.48014764 215.0212997 13.48253517 209.65748355 13.48317504 204.29364491 C13.48388843 200.93454894 13.48602821 197.57545697 13.48867226 194.216362 C13.49790834 182.47504928 13.50200929 170.73374787 13.5012207 158.99243164 C13.50062026 148.08389194 13.51116997 137.17540174 13.52696437 126.26687455 C13.54008014 116.87027959 13.54540292 107.47370073 13.54476529 98.0770967 C13.54451151 92.47866938 13.54729634 86.88028611 13.55794334 81.28186798 C13.56769264 76.01225078 13.56765712 70.74271914 13.56042671 65.47309875 C13.55938934 63.55118941 13.5616927 61.62927454 13.56778717 59.70737457 C14.49294408 38.84104348 14.49294408 38.84104348 7.31591797 20.17700195 C4.05535218 17.02229869 0.53079293 16.23344675 -3.80908203 15.11450195 C-10.4708983 13.39018568 -10.4708983 13.39018568 -12.68408203 11.17700195 C-13.2502585 4.94906078 -13.2502585 4.94906078 -11.30908203 2.30200195 C-7.64343714 -0.2357522 -4.31565511 0.01540811 0 0 Z M40.31591797 13.17700195 C37.04545702 18.94655426 36.88606825 24.02831708 36.92773438 30.55932617 C36.92247742 31.5797702 36.91722046 32.60021423 36.9118042 33.65158081 C36.89864294 37.01177455 36.90733016 40.3714912 36.91748047 43.73168945 C36.91545832 46.07667125 36.9125457 48.42165243 36.90878296 50.76663208 C36.90436457 55.67740882 36.91077406 60.58802164 36.92480469 65.4987793 C36.94187715 71.77880377 36.93206429 78.05844302 36.9140873 84.33845329 C36.90322035 89.18045934 36.90670952 94.02237485 36.91447067 98.8643837 C36.9164656 101.17912975 36.91403836 103.49388414 36.90703201 105.80862045 C36.89937187 109.05126293 36.91108686 112.29329163 36.92773438 115.53588867 C36.92166168 116.48371216 36.91558899 117.43153564 36.90933228 118.40808105 C36.97769414 125.63384926 38.00658892 132.12053703 42.44091797 137.98950195 C51.58475535 144.94676953 61.13184557 145.54097529 72.31591797 144.17700195 C83.53826845 141.55719398 91.81600956 134.29230158 98.12841797 124.86450195 C110.84682609 103.34794798 113.44537794 77.2731372 107.82714844 53.0715332 C105.59060637 44.4211721 102.6264616 36.4495691 97.31591797 29.17700195 C96.53087891 28.10192383 96.53087891 28.10192383 95.72998047 27.00512695 C88.78401927 18.330828 78.27159628 12.83740245 67.31591797 11.17700195 C64.02341571 11.00919559 60.73720243 10.99191505 57.44091797 10.98950195 C56.56822266 10.97725586 55.69552734 10.96500977 54.79638672 10.95239258 C49.69573656 10.94088735 45.0134996 10.98439672 40.31591797 13.17700195 Z " fill="#000000" transform="translate(1298.68408203125,59.822998046875)"/>
<path d="M0 0 C0.7938913 -0.0065712 1.58778259 -0.0131424 2.4057312 -0.01991272 C5.04506528 -0.03968754 7.68434191 -0.05132682 10.32373047 -0.0612793 C11.22866116 -0.06535482 12.13359184 -0.06943035 13.06594467 -0.07362938 C17.86948163 -0.09452274 22.67298988 -0.10880185 27.4765625 -0.11816406 C32.4008231 -0.12914537 37.32462135 -0.16343831 42.24872017 -0.20333576 C46.0633111 -0.2297199 49.87779644 -0.23787575 53.69247055 -0.24144554 C55.50464828 -0.24626732 57.31682273 -0.25775251 59.12891006 -0.27648354 C79.70933912 -0.47573448 97.74933268 3.15300773 113.11279297 17.9465332 C113.83982422 18.68258789 114.56685547 19.41864258 115.31591797 20.17700195 C115.93982422 20.77899414 116.56373047 21.38098633 117.20654297 22.0012207 C132.47173417 37.85088995 136.04477461 59.41943053 135.84204102 80.52685547 C135.20467507 103.22574052 128.5636831 122.9432373 111.95263672 139.0324707 C106.22833568 143.68823554 98.66953955 148.86969145 91.31591797 150.17700195 C91.86805239 154.61375248 92.97645077 157.94647167 95.05419922 161.89575195 C95.62066162 162.98098145 96.18712402 164.06621094 96.77075195 165.18432617 C97.38378174 166.33690918 97.99681152 167.48949219 98.62841797 168.67700195 C99.26837784 169.89432072 99.90777475 171.11193559 100.54663086 172.32983398 C104.84270635 180.49705169 109.25103957 188.60213684 113.70385742 196.68481445 C117.87238048 204.28216216 121.85526833 211.97018461 125.81591797 219.67700195 C131.6911463 231.10735197 137.72119532 242.44244776 143.94824219 253.68579102 C144.94084578 255.49381083 145.91989418 257.30929347 146.890625 259.12915039 C147.67928955 260.60303223 147.67928955 260.60303223 148.48388672 262.10668945 C148.95979248 263.00371582 149.43569824 263.90074219 149.92602539 264.82495117 C153.43844138 270.76884994 158.2203474 272.80778801 164.71435547 274.5637207 C167.92775809 275.32123453 171.15322832 275.98531737 174.40576172 276.55200195 C176.75003647 277.31904482 177.79656756 278.24877437 179.31591797 280.17700195 C179.81591797 283.11450195 179.81591797 283.11450195 179.31591797 286.17700195 C176.54112366 289.18302912 174.35050282 290.41730319 170.33935547 290.69458008 C168.7900919 290.72082599 167.2403224 290.72413801 165.69091797 290.70825195 C164.86640137 290.71207886 164.04188477 290.71590576 163.19238281 290.71984863 C161.45425186 290.72256292 159.71607972 290.71523554 157.97802734 290.69848633 C155.32410239 290.677068 152.67288417 290.6983025 150.01904297 290.72387695 C148.32632869 290.72123359 146.63361608 290.71610843 144.94091797 290.70825195 C144.15120605 290.71634888 143.36149414 290.7244458 142.54785156 290.73278809 C138.73054655 290.66811952 136.74537017 290.44073118 133.42211914 288.39990234 C131.44974795 286.31824711 130.20936416 284.65447604 128.99169922 282.0793457 C128.60836426 281.28818359 128.2250293 280.49702148 127.83007812 279.68188477 C127.43353027 278.83464844 127.03698242 277.98741211 126.62841797 277.11450195 C125.74878049 275.29458508 124.86722365 273.47559484 123.98388672 271.6574707 C123.53964355 270.73756348 123.09540039 269.81765625 122.63769531 268.86987305 C120.66031373 264.84133243 118.55513421 260.88494724 116.44091797 256.92700195 C112.6177559 249.73255423 108.9409284 242.47316455 105.31591797 235.17700195 C101.32585212 227.1461464 97.24332522 219.17724411 93.03466797 211.2590332 C89.86690377 205.27772764 86.82629583 199.23885139 83.81591797 193.17700195 C80.23494642 185.97576324 76.60857156 178.80226539 72.87841797 171.67700195 C72.47751953 170.90614258 72.07662109 170.1352832 71.66357422 169.34106445 C70.91307841 167.9161366 70.14570402 166.49992472 69.35888672 165.09472656 C68.40895557 163.3480718 67.59055979 161.53149632 66.78857422 159.7121582 C63.30519108 156.14072747 60.38909202 156.32775256 55.53076172 156.14770508 C54.42861328 156.13674805 53.32646484 156.12579102 52.19091797 156.11450195 C51.08103516 156.06874023 49.97115234 156.02297852 48.82763672 155.97583008 C44.55773573 155.82955538 44.55773573 155.82955538 40.31591797 156.17700195 C37.80757988 159.93950909 38.03444844 162.89374341 38.05712891 167.25 C38.05362427 168.07329803 38.05011963 168.89659607 38.04650879 169.74484253 C38.03768504 172.47622035 38.04354988 175.20734006 38.05029297 177.9387207 C38.04894483 179.84666493 38.04700306 181.75460882 38.04449463 183.66255188 C38.04154113 187.6733424 38.0458421 191.68404402 38.05517578 195.69482422 C38.06647028 200.79267718 38.06007651 205.89031721 38.04803085 210.98816204 C38.0407322 214.93743939 38.0431382 218.88666806 38.04828644 222.83594704 C38.04960618 224.7122888 38.04803508 226.58863522 38.04332733 228.46497154 C37.05202231 249.55496145 37.05202231 249.55496145 43.70263672 268.70043945 C47.77670787 272.42925034 52.95944799 273.8540491 58.19091797 275.23950195 C62.82219412 276.6288848 62.82219412 276.6288848 64.31591797 279.17700195 C64.81591797 282.61450195 64.81591797 282.61450195 64.31591797 286.17700195 C61.66738966 288.91934853 59.99286461 290.06794799 56.20471191 290.6782074 C55.04064819 290.67837357 53.87658447 290.67853973 52.67724609 290.67871094 C51.70796425 290.68681541 51.70796425 290.68681541 50.71910095 290.69508362 C48.5946495 290.70753561 46.47156282 290.69110587 44.34716797 290.6730957 C42.86413502 290.67325078 41.38110167 290.67474113 39.89807129 290.67750549 C36.7944948 290.67888789 33.69138135 290.66635889 30.58789062 290.64355469 C26.61657631 290.61516999 22.64603095 290.61790924 18.67465973 290.6306448 C15.61364209 290.63761129 12.55280111 290.62980173 9.49180603 290.61738777 C8.02783384 290.61288266 6.56384263 290.61252824 5.09986877 290.61645317 C3.05104935 290.61937508 1.00327671 290.60281407 -1.04541016 290.58105469 C-2.20947388 290.5756517 -3.3735376 290.57024872 -4.57287598 290.56468201 C-8.03712294 290.13301036 -9.92865017 289.29585089 -12.68408203 287.17700195 C-13.74658203 284.30200195 -13.74658203 284.30200195 -13.68408203 281.17700195 C-10.84012784 276.61973878 -8.38284731 275.39114592 -3.24658203 274.11450195 C2.35672159 272.70556002 6.50803289 271.11215655 9.64404297 266.02075195 C14.58590094 253.45670626 13.46520518 239.63298847 13.46118164 226.34204102 C13.46417868 224.35640399 13.46758245 222.37076754 13.47135925 220.38513184 C13.48014764 215.0212997 13.48253517 209.65748355 13.48317504 204.29364491 C13.48388843 200.93454894 13.48602821 197.57545697 13.48867226 194.216362 C13.49790834 182.47504928 13.50200929 170.73374787 13.5012207 158.99243164 C13.50062026 148.08389194 13.51116997 137.17540174 13.52696437 126.26687455 C13.54008014 116.87027959 13.54540292 107.47370073 13.54476529 98.0770967 C13.54451151 92.47866938 13.54729634 86.88028611 13.55794334 81.28186798 C13.56769264 76.01225078 13.56765712 70.74271914 13.56042671 65.47309875 C13.55938934 63.55118941 13.5616927 61.62927454 13.56778717 59.70737457 C14.49294408 38.84104348 14.49294408 38.84104348 7.31591797 20.17700195 C4.05535218 17.02229869 0.53079293 16.23344675 -3.80908203 15.11450195 C-10.4708983 13.39018568 -10.4708983 13.39018568 -12.68408203 11.17700195 C-13.2502585 4.94906078 -13.2502585 4.94906078 -11.30908203 2.30200195 C-7.64343714 -0.2357522 -4.31565511 0.01540811 0 0 Z M40.31591797 13.17700195 C37.04545702 18.94655426 36.88606825 24.02831708 36.92773438 30.55932617 C36.92247742 31.5797702 36.91722046 32.60021423 36.9118042 33.65158081 C36.89864294 37.01177455 36.90733016 40.3714912 36.91748047 43.73168945 C36.91545832 46.07667125 36.9125457 48.42165243 36.90878296 50.76663208 C36.90436457 55.67740882 36.91077406 60.58802164 36.92480469 65.4987793 C36.94187715 71.77880377 36.93206429 78.05844302 36.9140873 84.33845329 C36.90322035 89.18045934 36.90670952 94.02237485 36.91447067 98.8643837 C36.9164656 101.17912975 36.91403836 103.49388414 36.90703201 105.80862045 C36.89937187 109.05126293 36.91108686 112.29329163 36.92773438 115.53588867 C36.92166168 116.48371216 36.91558899 117.43153564 36.90933228 118.40808105 C36.97769414 125.63384926 38.00658892 132.12053703 42.44091797 137.98950195 C51.58475535 144.94676953 61.13184557 145.54097529 72.31591797 144.17700195 C83.53826845 141.55719398 91.81600956 134.29230158 98.12841797 124.86450195 C110.84682609 103.34794798 113.44537794 77.2731372 107.82714844 53.0715332 C105.59060637 44.4211721 102.6264616 36.4495691 97.31591797 29.17700195 C96.53087891 28.10192383 96.53087891 28.10192383 95.72998047 27.00512695 C88.78401927 18.330828 78.27159628 12.83740245 67.31591797 11.17700195 C64.02341571 11.00919559 60.73720243 10.99191505 57.44091797 10.98950195 C56.56822266 10.97725586 55.69552734 10.96500977 54.79638672 10.95239258 C49.69573656 10.94088735 45.0134996 10.98439672 40.31591797 13.17700195 Z " fill="#000000" transform="translate(26.68408203125,59.822998046875)"/>
<path d="M0 0 C0.7528125 0.02191406 1.505625 0.04382812 2.28125 0.06640625 C3.41046875 0.06447266 3.41046875 0.06447266 4.5625 0.0625 C7.61877518 0.84271109 8.74624154 2.24110993 10.78125 4.62890625 C11.76634216 7.17523193 11.76634216 7.17523193 12.46264648 10.11230469 C12.73578674 11.23307404 13.008927 12.35384338 13.29034424 13.50857544 C13.57480408 14.73937836 13.85926392 15.97018127 14.15234375 17.23828125 C14.46829944 18.55823094 14.78553574 19.87787463 15.10394287 21.19723511 C15.97461678 24.82076575 16.82739492 28.44830858 17.67742538 32.07672882 C18.59704868 35.98775732 19.53342491 39.89477307 20.46801758 43.80224609 C22.08041841 50.55265642 23.68297113 57.3053415 25.27929688 64.05957031 C27.55832578 73.70039586 29.85724163 83.33639058 32.16271591 92.97092247 C33.23092309 97.43499473 34.29833441 101.89925726 35.36572266 106.36352539 C35.68654155 107.70529075 35.68654155 107.70529075 36.01384163 109.07416248 C38.43259206 119.19169489 40.84611612 129.31047156 43.2578125 139.4296875 C43.47950985 140.35980337 43.7012072 141.28991924 43.92962265 142.24822044 C46.81512164 154.35571836 49.69237033 166.46515039 52.56254482 178.57629013 C54.58456061 187.10772794 56.61093165 195.63812446 58.6400919 204.16786575 C60.09251624 210.27473664 61.5392318 216.38292193 62.98161697 222.49217129 C63.87748472 226.2804516 64.77884644 230.06740918 65.68170547 233.8540287 C66.09781669 235.60409896 66.51169243 237.35470259 66.92309189 239.10588646 C70.94694209 259.23852683 70.94694209 259.23852683 82.6640625 275.33984375 C86.75258765 277.82916718 91.28667712 279.46330291 95.734375 281.19921875 C98.78125 282.62890625 98.78125 282.62890625 100.78125 285.62890625 C101.15625 288.56640625 101.15625 288.56640625 100.78125 291.62890625 C98.9141509 293.93166181 97.42477259 295.30714496 94.78125 296.62890625 C92.83719381 296.74064028 90.88932255 296.7881908 88.94213867 296.8059082 C87.71714157 296.81874344 86.49214447 296.83157867 85.23002625 296.84480286 C83.88642785 296.85297058 82.54282489 296.86041425 81.19921875 296.8671875 C80.52327478 296.87126303 79.84733082 296.87533855 79.1509037 296.87953758 C75.5725294 296.90039754 71.99419343 296.91469898 68.41577148 296.92407227 C64.72346575 296.93513102 61.03176364 296.96952386 57.33967113 297.00924397 C54.49745073 297.03541764 51.65537391 297.04376474 48.81304359 297.04735374 C47.4522933 297.05221861 46.09154937 297.06382996 44.73091698 297.08239174 C42.82360778 297.10679186 40.91600483 297.1033975 39.00854492 297.09887695 C37.92425705 297.10474319 36.83996918 297.11060944 35.7228241 297.11665344 C32.05436826 296.5083808 30.38017827 295.24734763 27.78125 292.62890625 C27.22752882 289.30657919 27.30623273 287.48489374 28.9453125 284.53125 C31.37278164 282.01597878 33.24543633 281.80807456 36.65625 281.19140625 C40.31189905 280.341667 42.78083237 279.62915522 46.03125 277.69140625 C51.29345596 268.48254582 46.4507986 255.15869752 44.15625 245.44140625 C43.79059356 243.85195308 43.42593879 242.26226917 43.06225586 240.67236328 C42.1559224 236.72689039 41.23351169 232.78541455 40.30377197 228.84539795 C39.80962936 226.74928895 39.318893 224.65241905 38.82958984 222.55517578 C37.54075386 217.04170271 36.24185001 211.53063685 34.91015625 206.02734375 C34.71494385 205.21958496 34.51973145 204.41182617 34.31860352 203.57958984 C33.8330863 201.57123337 33.8330863 201.57123337 32.78125 199.62890625 C29.49457424 198.53334766 27.07348384 198.50196695 23.61328125 198.49951172 C22.34186279 198.49635956 21.07044434 198.4932074 19.76049805 198.48995972 C18.37158168 198.49174961 16.98266563 198.49380059 15.59375 198.49609375 C14.17032861 198.49542012 12.74690733 198.4944496 11.32348633 198.49319458 C8.34097193 198.49172039 5.35848748 198.49386323 2.37597656 198.49853516 C-1.44740687 198.50423228 -5.2707201 198.50095179 -9.09410095 198.49496269 C-12.03316782 198.49134957 -14.97221803 198.49249913 -17.9112854 198.49509048 C-19.32109587 198.49575767 -20.73090785 198.49493859 -22.14071655 198.49261093 C-24.11073783 198.49007217 -26.0807644 198.49462756 -28.05078125 198.49951172 C-29.17202393 198.50030731 -30.2932666 198.50110291 -31.44848633 198.50192261 C-34.30676638 198.50688069 -34.30676638 198.50688069 -37.21875 199.62890625 C-38.3262513 202.45898729 -38.3262513 202.45898729 -39.11328125 206 C-39.36136284 206.99585365 -39.36136284 206.99585365 -39.61445618 208.01182556 C-39.97248916 209.45608731 -40.32456845 210.9018348 -40.67144775 212.34881592 C-41.2232084 214.64748019 -41.79173049 216.94141195 -42.36474609 219.23486328 C-43.36072448 223.2329097 -44.33940892 227.23492602 -45.31079102 231.23901367 C-45.91333623 233.72059084 -46.52002292 236.2011327 -47.12695312 238.68164062 C-47.5158721 240.27988781 -47.90455289 241.87819297 -48.29296875 243.4765625 C-48.47212326 244.2078688 -48.65127777 244.93917511 -48.83586121 245.69264221 C-50.42470082 252.26748589 -51.38677755 258.42184801 -51.46875 265.19140625 C-51.50742187 267.11146484 -51.50742187 267.11146484 -51.546875 269.0703125 C-51.19866905 272.84668891 -50.54369782 274.67135634 -48.21875 277.62890625 C-45.11095516 279.24495956 -42.16497465 280.33466291 -38.83203125 281.37109375 C-38.03152344 281.62117188 -37.23101563 281.87125 -36.40625 282.12890625 C-35.28283203 282.45375 -35.28283203 282.45375 -34.13671875 282.78515625 C-32.21875 283.62890625 -32.21875 283.62890625 -30.21875 286.62890625 C-30.28125 290.12890625 -30.28125 290.12890625 -31.21875 293.62890625 C-34.68554043 296.27029078 -37.25837673 297.00584142 -41.57226562 297.01708984 C-42.61684937 297.02654633 -43.66143311 297.03600281 -44.7376709 297.04574585 C-45.8554895 297.03967316 -46.97330811 297.03360046 -48.125 297.02734375 C-49.28245728 297.03021393 -50.43991455 297.03308411 -51.63244629 297.03604126 C-54.07674652 297.03808044 -56.52106312 297.03256084 -58.96533203 297.02001953 C-62.70512406 297.00396475 -66.44383531 297.01987416 -70.18359375 297.0390625 C-72.55989822 297.03708004 -74.93620201 297.03323632 -77.3125 297.02734375 C-78.98922791 297.03645279 -78.98922791 297.03645279 -80.6998291 297.04574585 C-81.74441284 297.03628937 -82.78899658 297.02683289 -83.86523438 297.01708984 C-84.7805896 297.01470306 -85.69594482 297.01231628 -86.63903809 297.00985718 C-90.05622375 296.50523492 -92.76128692 295.08636933 -95.21875 292.62890625 C-95.7969366 285.57502977 -95.7969366 285.57502977 -93.84375 282.37890625 C-91.32230166 280.69794069 -89.10302458 279.75535404 -86.28125 278.69140625 C-81.86698959 277.0150229 -79.2151058 275.39575354 -76.21875 271.62890625 C-75.81269531 271.12230469 -75.40664063 270.61570312 -74.98828125 270.09375 C-66.37213828 258.03114984 -64.17457009 239.94306848 -60.703125 225.7734375 C-60.17353859 223.62781141 -59.64350179 221.48229644 -59.11305237 219.33688354 C-57.98214084 214.75893027 -56.85428334 210.18024002 -55.72891235 205.60092163 C-53.9480337 198.35425749 -52.1604366 191.10926104 -50.37182617 183.86450195 C-48.20419187 175.08251653 -46.03821409 166.30012582 -43.87447262 157.51718044 C-38.58390035 136.04211221 -33.27091964 114.57260717 -27.95458794 93.10390377 C-25.86682142 84.67282917 -23.78049105 76.24140003 -21.69575691 67.80957508 C-20.50748041 63.00452693 -19.31738681 58.19994593 -18.12265015 53.39649963 C-16.20407476 45.67919633 -14.28957142 37.9617842 -12.44492435 30.22641659 C-11.72433331 27.20826076 -10.99467956 24.192334 -10.26396751 21.17661476 C-9.93471475 19.80605634 -9.61010344 18.43437272 -9.29064369 17.06149864 C-8.85938138 15.20855883 -8.41096089 13.35963739 -7.96166992 11.51098633 C-7.59835823 9.97550896 -7.59835823 9.97550896 -7.22770691 8.40901184 C-5.84626746 4.60255836 -4.06258407 1.15154232 0 0 Z M-2.21875 52.62890625 C-7.00154911 71.70547397 -11.77481497 90.7843967 -16.53407288 109.86685181 C-18.68351348 118.48421854 -20.83739711 127.10043397 -23.0001297 135.71447468 C-24.50188019 141.69811941 -25.99395465 147.68413523 -27.4821167 153.6711731 C-28.09717447 156.1388583 -28.71553199 158.60572345 -29.33721924 161.07174683 C-30.19572037 164.4793346 -31.04266487 167.88959101 -31.88671875 171.30078125 C-32.14099136 172.29846024 -32.39526398 173.29613922 -32.65724182 174.3240509 C-32.88016403 175.23515121 -33.10308624 176.14625153 -33.33276367 177.08496094 C-33.52940109 177.87151062 -33.72603851 178.6580603 -33.92863464 179.46844482 C-34.24925313 181.85606018 -34.07764065 183.38375928 -33.21875 185.62890625 C-30.59554406 186.94050922 -28.65258754 186.75600251 -25.71508789 186.75830078 C-23.98803368 186.76302902 -23.98803368 186.76302902 -22.22608948 186.76785278 C-20.97714401 186.76582855 -19.72819855 186.76380432 -18.44140625 186.76171875 C-17.16398056 186.76267548 -15.88655487 186.7636322 -14.57041931 186.76461792 C-11.8643762 186.76529954 -9.1584229 186.7639458 -6.45239258 186.75927734 C-2.98433582 186.75358584 0.48364345 186.75685637 3.95169735 186.76284981 C7.25816559 186.76733393 10.5646245 186.76419327 13.87109375 186.76171875 C15.7414756 186.7647551 15.7414756 186.7647551 17.64964294 186.76785278 C18.80416458 186.76470062 19.95868622 186.76154846 21.14819336 186.75830078 C22.16586288 186.75750519 23.18353241 186.75670959 24.23204041 186.75588989 C26.90407842 186.73720676 26.90407842 186.73720676 29.78125 185.62890625 C29.96077939 180.46402593 29.35073519 175.86666187 28.10400391 170.8815918 C27.92481981 170.13776812 27.74563572 169.39394444 27.5610218 168.62758064 C26.96745465 166.17170611 26.36264689 163.71874665 25.7578125 161.265625 C25.33547632 159.52716893 24.91388067 157.78853281 24.49298096 156.04972839 C23.37081988 151.42211371 22.23917067 146.79687056 21.1054306 142.17208099 C19.94293283 137.42407239 18.78822023 132.67417305 17.63330078 127.92431641 C17.17430209 126.0368613 16.71528725 124.14941011 16.2562561 122.26196289 C16.03058582 121.33401917 15.80491554 120.40607544 15.57240677 119.45001221 C14.89250475 116.65616177 14.21144414 113.86259594 13.53012085 111.0690918 C11.0754175 100.99864542 8.65116848 90.92260208 6.296875 80.828125 C5.93938675 79.29961159 5.93938675 79.29961159 5.57467651 77.74021912 C4.73210349 74.13368151 3.89016614 70.52710533 3.0647583 66.91659546 C2.53693373 64.60812394 1.99992799 62.30197827 1.4609375 59.99609375 C1.17976074 58.77003418 0.89858398 57.54397461 0.60888672 56.28076172 C0.3357666 55.40564941 0.06264648 54.53053711 -0.21875 53.62890625 C-0.87875 53.29890625 -1.53875 52.96890625 -2.21875 52.62890625 Z " fill="#000000" transform="translate(802.21875,53.37109375)"/>
<path d="M0 0 C0.7528125 0.02191406 1.505625 0.04382812 2.28125 0.06640625 C3.41046875 0.06447266 3.41046875 0.06447266 4.5625 0.0625 C7.61877518 0.84271109 8.74624154 2.24110993 10.78125 4.62890625 C11.76634216 7.17523193 11.76634216 7.17523193 12.46264648 10.11230469 C12.73578674 11.23307404 13.008927 12.35384338 13.29034424 13.50857544 C13.57480408 14.73937836 13.85926392 15.97018127 14.15234375 17.23828125 C14.46829944 18.55823094 14.78553574 19.87787463 15.10394287 21.19723511 C15.97461678 24.82076575 16.82739492 28.44830858 17.67742538 32.07672882 C18.59704868 35.98775732 19.53342491 39.89477307 20.46801758 43.80224609 C22.08041841 50.55265642 23.68297113 57.3053415 25.27929688 64.05957031 C27.55832578 73.70039586 29.85724163 83.33639058 32.16271591 92.97092247 C33.23092309 97.43499473 34.29833441 101.89925726 35.36572266 106.36352539 C35.68654155 107.70529075 35.68654155 107.70529075 36.01384163 109.07416248 C38.43259206 119.19169489 40.84611612 129.31047156 43.2578125 139.4296875 C43.47950985 140.35980337 43.7012072 141.28991924 43.92962265 142.24822044 C46.81512164 154.35571836 49.69237033 166.46515039 52.56254482 178.57629013 C54.58456061 187.10772794 56.61093165 195.63812446 58.6400919 204.16786575 C60.09251624 210.27473664 61.5392318 216.38292193 62.98161697 222.49217129 C63.87748472 226.2804516 64.77884644 230.06740918 65.68170547 233.8540287 C66.09781669 235.60409896 66.51169243 237.35470259 66.92309189 239.10588646 C70.94694209 259.23852683 70.94694209 259.23852683 82.6640625 275.33984375 C86.75258765 277.82916718 91.28667712 279.46330291 95.734375 281.19921875 C98.78125 282.62890625 98.78125 282.62890625 100.78125 285.62890625 C101.15625 288.56640625 101.15625 288.56640625 100.78125 291.62890625 C98.9141509 293.93166181 97.42477259 295.30714496 94.78125 296.62890625 C92.83719381 296.74064028 90.88932255 296.7881908 88.94213867 296.8059082 C87.71714157 296.81874344 86.49214447 296.83157867 85.23002625 296.84480286 C83.88642785 296.85297058 82.54282489 296.86041425 81.19921875 296.8671875 C80.52327478 296.87126303 79.84733082 296.87533855 79.1509037 296.87953758 C75.5725294 296.90039754 71.99419343 296.91469898 68.41577148 296.92407227 C64.72346575 296.93513102 61.03176364 296.96952386 57.33967113 297.00924397 C54.49745073 297.03541764 51.65537391 297.04376474 48.81304359 297.04735374 C47.4522933 297.05221861 46.09154937 297.06382996 44.73091698 297.08239174 C42.82360778 297.10679186 40.91600483 297.1033975 39.00854492 297.09887695 C37.92425705 297.10474319 36.83996918 297.11060944 35.7228241 297.11665344 C32.05436826 296.5083808 30.38017827 295.24734763 27.78125 292.62890625 C27.22752882 289.30657919 27.30623273 287.48489374 28.9453125 284.53125 C31.37278164 282.01597878 33.24543633 281.80807456 36.65625 281.19140625 C40.31189905 280.341667 42.78083237 279.62915522 46.03125 277.69140625 C51.29345596 268.48254582 46.4507986 255.15869752 44.15625 245.44140625 C43.79059356 243.85195308 43.42593879 242.26226917 43.06225586 240.67236328 C42.1559224 236.72689039 41.23351169 232.78541455 40.30377197 228.84539795 C39.80962936 226.74928895 39.318893 224.65241905 38.82958984 222.55517578 C37.54075386 217.04170271 36.24185001 211.53063685 34.91015625 206.02734375 C34.71494385 205.21958496 34.51973145 204.41182617 34.31860352 203.57958984 C33.8330863 201.57123337 33.8330863 201.57123337 32.78125 199.62890625 C29.49457424 198.53334766 27.07348384 198.50196695 23.61328125 198.49951172 C22.34186279 198.49635956 21.07044434 198.4932074 19.76049805 198.48995972 C18.37158168 198.49174961 16.98266563 198.49380059 15.59375 198.49609375 C14.17032861 198.49542012 12.74690733 198.4944496 11.32348633 198.49319458 C8.34097193 198.49172039 5.35848748 198.49386323 2.37597656 198.49853516 C-1.44740687 198.50423228 -5.2707201 198.50095179 -9.09410095 198.49496269 C-12.03316782 198.49134957 -14.97221803 198.49249913 -17.9112854 198.49509048 C-19.32109587 198.49575767 -20.73090785 198.49493859 -22.14071655 198.49261093 C-24.11073783 198.49007217 -26.0807644 198.49462756 -28.05078125 198.49951172 C-29.17202393 198.50030731 -30.2932666 198.50110291 -31.44848633 198.50192261 C-34.30676638 198.50688069 -34.30676638 198.50688069 -37.21875 199.62890625 C-38.3262513 202.45898729 -38.3262513 202.45898729 -39.11328125 206 C-39.36136284 206.99585365 -39.36136284 206.99585365 -39.61445618 208.01182556 C-39.97248916 209.45608731 -40.32456845 210.9018348 -40.67144775 212.34881592 C-41.2232084 214.64748019 -41.79173049 216.94141195 -42.36474609 219.23486328 C-43.36072448 223.2329097 -44.33940892 227.23492602 -45.31079102 231.23901367 C-45.91333623 233.72059084 -46.52002292 236.2011327 -47.12695312 238.68164062 C-47.5158721 240.27988781 -47.90455289 241.87819297 -48.29296875 243.4765625 C-48.47212326 244.2078688 -48.65127777 244.93917511 -48.83586121 245.69264221 C-50.42470082 252.26748589 -51.38677755 258.42184801 -51.46875 265.19140625 C-51.50742187 267.11146484 -51.50742187 267.11146484 -51.546875 269.0703125 C-51.19866905 272.84668891 -50.54369782 274.67135634 -48.21875 277.62890625 C-45.11095516 279.24495956 -42.16497465 280.33466291 -38.83203125 281.37109375 C-38.03152344 281.62117188 -37.23101562 281.87125 -36.40625 282.12890625 C-35.28283203 282.45375 -35.28283203 282.45375 -34.13671875 282.78515625 C-32.21875 283.62890625 -32.21875 283.62890625 -30.21875 286.62890625 C-30.28125 290.12890625 -30.28125 290.12890625 -31.21875 293.62890625 C-34.68554043 296.27029078 -37.25837673 297.00584142 -41.57226562 297.01708984 C-42.61684937 297.02654633 -43.66143311 297.03600281 -44.7376709 297.04574585 C-45.8554895 297.03967316 -46.97330811 297.03360046 -48.125 297.02734375 C-49.28245728 297.03021393 -50.43991455 297.03308411 -51.63244629 297.03604126 C-54.07674652 297.03808044 -56.52106312 297.03256084 -58.96533203 297.02001953 C-62.70512406 297.00396475 -66.44383531 297.01987416 -70.18359375 297.0390625 C-72.55989822 297.03708004 -74.93620201 297.03323632 -77.3125 297.02734375 C-78.98922791 297.03645279 -78.98922791 297.03645279 -80.6998291 297.04574585 C-81.74441284 297.03628937 -82.78899658 297.02683289 -83.86523438 297.01708984 C-84.7805896 297.01470306 -85.69594482 297.01231628 -86.63903809 297.00985718 C-90.05622375 296.50523492 -92.76128692 295.08636933 -95.21875 292.62890625 C-95.7969366 285.57502977 -95.7969366 285.57502977 -93.84375 282.37890625 C-91.32230166 280.69794069 -89.10302458 279.75535404 -86.28125 278.69140625 C-81.86698959 277.0150229 -79.2151058 275.39575354 -76.21875 271.62890625 C-75.81269531 271.12230469 -75.40664062 270.61570312 -74.98828125 270.09375 C-66.37213828 258.03114984 -64.17457009 239.94306848 -60.703125 225.7734375 C-60.17353859 223.62781141 -59.64350179 221.48229644 -59.11305237 219.33688354 C-57.98214084 214.75893027 -56.85428334 210.18024002 -55.72891235 205.60092163 C-53.9480337 198.35425749 -52.1604366 191.10926104 -50.37182617 183.86450195 C-48.20419187 175.08251653 -46.03821409 166.30012582 -43.87447262 157.51718044 C-38.58390035 136.04211221 -33.27091964 114.57260717 -27.95458794 93.10390377 C-25.86682142 84.67282917 -23.78049105 76.24140003 -21.69575691 67.80957508 C-20.50748041 63.00452693 -19.31738681 58.19994593 -18.12265015 53.39649963 C-16.20407476 45.67919633 -14.28957142 37.9617842 -12.44492435 30.22641659 C-11.72433331 27.20826076 -10.99467956 24.192334 -10.26396751 21.17661476 C-9.93471475 19.80605634 -9.61010344 18.43437272 -9.29064369 17.06149864 C-8.85938138 15.20855883 -8.41096089 13.35963739 -7.96166992 11.51098633 C-7.59835823 9.97550896 -7.59835823 9.97550896 -7.22770691 8.40901184 C-5.84626746 4.60255836 -4.06258407 1.15154232 0 0 Z M-2.21875 52.62890625 C-7.00154911 71.70547397 -11.77481497 90.7843967 -16.53407288 109.86685181 C-18.68351348 118.48421854 -20.83739711 127.10043397 -23.0001297 135.71447468 C-24.50188019 141.69811941 -25.99395465 147.68413523 -27.4821167 153.6711731 C-28.09717447 156.1388583 -28.71553199 158.60572345 -29.33721924 161.07174683 C-30.19572037 164.4793346 -31.04266487 167.88959101 -31.88671875 171.30078125 C-32.14099136 172.29846024 -32.39526398 173.29613922 -32.65724182 174.3240509 C-32.88016403 175.23515121 -33.10308624 176.14625153 -33.33276367 177.08496094 C-33.52940109 177.87151062 -33.72603851 178.6580603 -33.92863464 179.46844482 C-34.24925313 181.85606018 -34.07764065 183.38375928 -33.21875 185.62890625 C-30.59554406 186.94050922 -28.65258754 186.75600251 -25.71508789 186.75830078 C-23.98803368 186.76302902 -23.98803368 186.76302902 -22.22608948 186.76785278 C-20.97714401 186.76582855 -19.72819855 186.76380432 -18.44140625 186.76171875 C-17.16398056 186.76267548 -15.88655487 186.7636322 -14.57041931 186.76461792 C-11.8643762 186.76529954 -9.1584229 186.7639458 -6.45239258 186.75927734 C-2.98433582 186.75358584 0.48364345 186.75685637 3.95169735 186.76284981 C7.25816559 186.76733393 10.5646245 186.76419327 13.87109375 186.76171875 C15.7414756 186.7647551 15.7414756 186.7647551 17.64964294 186.76785278 C18.80416458 186.76470062 19.95868622 186.76154846 21.14819336 186.75830078 C22.16586288 186.75750519 23.18353241 186.75670959 24.23204041 186.75588989 C26.90407842 186.73720676 26.90407842 186.73720676 29.78125 185.62890625 C29.96077939 180.46402593 29.35073519 175.86666187 28.10400391 170.8815918 C27.92481981 170.13776812 27.74563572 169.39394444 27.5610218 168.62758064 C26.96745465 166.17170611 26.36264689 163.71874665 25.7578125 161.265625 C25.33547632 159.52716893 24.91388067 157.78853281 24.49298096 156.04972839 C23.37081988 151.42211371 22.23917067 146.79687056 21.1054306 142.17208099 C19.94293283 137.42407239 18.78822023 132.67417305 17.63330078 127.92431641 C17.17430209 126.0368613 16.71528725 124.14941011 16.2562561 122.26196289 C16.03058582 121.33401917 15.80491554 120.40607544 15.57240677 119.45001221 C14.89250475 116.65616177 14.21144414 113.86259594 13.53012085 111.0690918 C11.0754175 100.99864542 8.65116848 90.92260208 6.296875 80.828125 C5.93938675 79.29961159 5.93938675 79.29961159 5.57467651 77.74021912 C4.73210349 74.13368151 3.89016614 70.52710533 3.0647583 66.91659546 C2.53693373 64.60812394 1.99992799 62.30197827 1.4609375 59.99609375 C1.17976074 58.77003418 0.89858398 57.54397461 0.60888672 56.28076172 C0.3357666 55.40564941 0.06264648 54.53053711 -0.21875 53.62890625 C-0.87875 53.29890625 -1.53875 52.96890625 -2.21875 52.62890625 Z " fill="#000000" transform="translate(310.21875,53.37109375)"/>
<path d="M0 0 C1.05300293 -0.00701431 2.10600586 -0.01402863 3.19091797 -0.02125549 C4.34583237 -0.01361176 5.50074677 -0.00596802 6.69065857 0.00190735 C8.51529129 -0.00356865 8.51529129 -0.00356865 10.37678528 -0.00915527 C13.71361593 -0.01587886 17.04989034 -0.00913827 20.38666654 0.00417686 C23.87576933 0.01548485 27.36485754 0.01138442 30.85397339 0.00942993 C36.7125071 0.00854686 42.57092512 0.0196309 48.4294281 0.03804016 C55.20788686 0.05921791 61.98617623 0.06271567 68.76466137 0.0564782 C75.28030423 0.05078904 81.79588729 0.05642426 88.31152153 0.06765175 C91.08701111 0.07230269 93.86246419 0.07316947 96.63795662 0.0710659 C100.50975509 0.06883731 104.38139155 0.08327247 108.25315857 0.0995636 C109.4100972 0.09708618 110.56703583 0.09460876 111.7590332 0.09205627 C112.80921631 0.09914108 113.85939941 0.10622589 114.94140625 0.11352539 C115.85745919 0.11557826 116.77351213 0.11763113 117.71732426 0.11974621 C119.9072113 0.3742218 119.9072113 0.3742218 121.9072113 2.3742218 C122.16117859 4.91706848 122.16117859 4.91706848 122.16600037 8.16914368 C122.17230469 9.3838031 122.17860901 10.59846252 122.18510437 11.84992981 C122.17903168 13.8264856 122.17903168 13.8264856 122.1728363 15.8429718 C122.17418307 17.20295786 122.17612369 18.56294345 122.17863464 19.92292786 C122.18158539 22.77441487 122.17728995 25.62577667 122.16795349 28.47724915 C122.15655885 32.13604957 122.1631186 35.7945566 122.17509842 39.45334625 C122.18231842 42.26200072 122.18002848 45.0705854 122.17484283 47.87924194 C122.17285592 49.88566783 122.17893993 51.8920964 122.18510437 53.89851379 C122.17564789 55.72050293 122.17564789 55.72050293 122.16600037 57.57929993 C122.16440918 58.65248474 122.16281799 59.72566956 122.16117859 60.83137512 C121.9072113 63.3742218 121.9072113 63.3742218 119.9072113 65.3742218 C116.4072113 65.6242218 116.4072113 65.6242218 112.9072113 65.3742218 C110.38197289 62.84898339 110.5242219 61.64172659 110.1962738 58.1320343 C110.03409363 56.54020325 110.03409363 56.54020325 109.86863708 54.91621399 C109.70210632 53.22480286 109.70210632 53.22480286 109.5322113 51.4992218 C108.19403905 36.52177476 108.19403905 36.52177476 101.5322113 23.3742218 C100.6659613 22.7142218 99.7997113 22.0542218 98.9072113 21.3742218 C98.1028363 20.6729718 97.2984613 19.9717218 96.4697113 19.2492218 C87.43371167 13.57890385 74.78841377 13.88903727 64.45384216 13.98310852 C62.31462718 13.99945164 60.17723523 13.98301987 58.03807068 13.96406555 C56.65981136 13.96604422 55.28155315 13.96988005 53.90330505 13.9757843 C52.67797058 13.97916809 51.45263611 13.98255188 50.19017029 13.98603821 C46.60116677 14.41040912 44.70531723 15.10295052 41.9072113 17.3742218 C40.9356252 20.2188656 40.77999344 22.85574239 40.77349854 25.84576416 C40.76923355 26.73593735 40.76496857 27.62611053 40.76057434 28.54325867 C40.76102753 29.51220062 40.76148071 30.48114258 40.76194763 31.47944641 C40.75858902 32.50587753 40.75523041 33.53230865 40.75177002 34.58984375 C40.74226514 37.98542997 40.74031721 41.38096686 40.73924255 44.77656555 C40.73602994 47.13541687 40.73266586 49.494268 40.72915649 51.8531189 C40.72316659 56.79855308 40.72131648 61.74396979 40.72190857 66.68940735 C40.72201025 73.02923841 40.70835133 79.36895763 40.69113636 85.70876217 C40.68002397 90.58061234 40.67798912 95.4524354 40.6785183 100.32429695 C40.67733729 102.66189014 40.67290878 104.99948401 40.66518593 107.33706474 C40.65540041 110.6046574 40.65825838 113.87200617 40.66429138 117.13960266 C40.65867187 118.10652039 40.65305237 119.07343811 40.64726257 120.06965637 C40.64630583 126.46055785 40.64630583 126.46055785 42.9072113 132.3742218 C47.89677991 134.75210268 54.90539474 133.56013497 60.38645935 133.55952454 C62.57001139 133.56169722 64.75304633 133.57983168 66.93650818 133.59883118 C79.51766639 133.97295916 79.51766639 133.97295916 90.7822113 129.2492218 C95.37879304 123.0303171 96.38267228 116.50096265 96.9697113 108.9992218 C97.64546196 100.63597115 97.64546196 100.63597115 99.9072113 98.3742218 C103.95982418 98.02931858 105.45475307 98.07258298 108.9072113 100.3742218 C109.19357061 103.06626328 109.28556275 105.52741736 109.24778748 108.22041321 C109.2484446 109.43517082 109.2484446 109.43517082 109.24911499 110.67446899 C109.24702045 113.35848375 109.22365848 116.04187832 109.20018005 118.7257843 C109.19458646 120.58380288 109.19031524 122.44182588 109.18731689 124.29985046 C109.1758495 129.19575669 109.14636611 134.09139692 109.11320496 138.98719788 C109.08254482 143.98075257 109.06882025 148.97435016 109.05369568 153.9679718 C109.02149815 163.77017216 108.97027901 173.57217488 108.9072113 183.3742218 C105.16100483 185.49517601 103.11655089 185.40317148 98.9072113 184.3742218 C97.27571854 182.74272903 97.64541239 180.81434462 97.51268005 178.5617218 C97.44371521 177.56785461 97.37475037 176.57398743 97.30369568 175.55000305 C97.16646939 173.46467645 97.03856401 171.37871141 96.92088318 169.29219055 C96.44617339 162.74707685 95.44995564 157.00820673 91.9072113 151.3742218 C86.00706877 146.45743636 80.95879837 146.216864 73.52830505 146.20625305 C72.7198262 146.20292465 71.91134735 146.19959625 71.07836914 146.19616699 C69.37296618 146.19111396 67.66755338 146.18875816 65.96214294 146.18891907 C63.35056911 146.18672672 60.7394139 146.16853812 58.12791443 146.14961243 C56.46971275 146.14667936 54.81150906 146.14469399 53.15330505 146.14375305 C52.37200729 146.13656754 51.59070953 146.12938202 50.78573608 146.12197876 C46.95697418 146.13816786 45.17012582 146.19894546 41.9072113 148.3742218 C40.32253719 152.15059068 40.76714532 156.43784521 40.77781677 160.46894836 C40.77606445 161.28263885 40.77431213 162.09632935 40.77250671 162.93467712 C40.76810287 165.62808868 40.77102434 168.32143456 40.7743988 171.0148468 C40.77372456 172.89894117 40.77275353 174.78303545 40.77149963 176.66712952 C40.770024 180.62484054 40.77217004 184.58252902 40.77684021 188.54023743 C40.78249053 193.56962544 40.77928776 198.59895953 40.77326775 203.62834549 C40.76961821 207.52699677 40.77082147 211.42563572 40.77339554 215.32428741 C40.77405518 217.1755092 40.7732707 219.02673217 40.77091599 220.87795258 C39.50079929 247.02687316 39.50079929 247.02687316 48.3447113 270.4992218 C49.1903363 271.1179718 50.0359613 271.7367218 50.9072113 272.3742218 C51.6084613 272.9310968 52.3097113 273.4879718 53.0322113 274.0617218 C65.37363108 279.69584822 81.34347656 278.63749426 93.9072113 274.3742218 C103.64748475 270.11796786 109.32893063 263.6759907 113.3212738 253.89179993 C116.08684002 246.677583 118.05332582 239.34497122 119.61497498 231.78242493 C120.71219481 226.56923829 120.71219481 226.56923829 122.9072113 224.3742218 C124.7822113 224.1085968 124.7822113 224.1085968 126.9072113 224.1242218 C127.6084613 224.11906555 128.3097113 224.1139093 129.0322113 224.1085968 C130.9072113 224.3742218 130.9072113 224.3742218 132.9072113 226.3742218 C133.46762083 232.73554032 132.04963416 238.81589784 130.82518005 245.0382843 C130.61033463 246.14851959 130.3954892 247.25875488 130.1741333 248.40263367 C129.71929524 250.74147482 129.26102883 253.07965156 128.79954529 255.41719055 C128.09617421 258.99178717 127.41030455 262.56945187 126.72557068 266.1476593 C126.28066594 268.42390817 125.8347371 270.69995717 125.38768005 272.9757843 C125.18442612 274.04358124 124.98117218 275.11137817 124.77175903 276.21153259 C124.57177811 277.20961945 124.37179718 278.2077063 124.16575623 279.23603821 C123.99476913 280.10983124 123.82378204 280.98362427 123.64761353 281.88389587 C122.79705643 284.74472521 121.59920437 286.92174096 119.9072113 289.3742218 C117.43625672 290.60969909 115.78870353 290.51100493 113.02406311 290.52812195 C111.99215347 290.53672241 110.96024384 290.54532288 109.89706421 290.55418396 C108.19206505 290.56057388 108.19206505 290.56057388 106.45262146 290.5670929 C105.2590654 290.57527039 104.06550934 290.58344788 102.83578491 290.59187317 C98.87262817 290.61675601 94.90947886 290.63339875 90.9462738 290.6476593 C89.58245715 290.65301883 88.21864057 290.65839634 86.85482407 290.66379166 C81.18274921 290.68541836 75.5106772 290.70415605 69.83857155 290.71541405 C61.70632507 290.73166071 53.57455582 290.76485734 45.44248927 290.82181489 C39.72608542 290.86049015 34.00980936 290.88004372 28.2932781 290.88533461 C24.87800174 290.88899103 21.46323441 290.90104168 18.04809952 290.93343735 C14.23855643 290.96489948 10.43022799 290.96515356 6.62059021 290.9577179 C5.48797256 290.97412323 4.35535492 290.99052856 3.18841553 291.00743103 C-4.42507847 290.94639036 -4.42507847 290.94639036 -7.82487488 288.0330658 C-9.46357012 284.59668477 -9.33682979 282.95083993 -8.0927887 279.3742218 C-5.28416054 276.8220608 -2.81163943 275.86683045 0.8447113 274.9992218 C6.79611553 273.31007325 9.58089375 270.69527753 12.6572113 265.3117218 C18.05362164 252.63015752 16.05257366 235.87013968 16.03660583 222.29707336 C16.03796428 220.33391284 16.03974669 218.37075257 16.04191589 216.40759277 C16.04643632 211.12483871 16.04472338 205.84210438 16.04153681 200.55935001 C16.03898658 195.00632745 16.04135798 189.45330645 16.04292297 183.90028381 C16.04473633 174.58348795 16.04235966 165.26670005 16.0375824 155.9499054 C16.03213499 145.20253941 16.03390928 134.45519238 16.0394088 123.70782685 C16.0439561 114.44794371 16.04458276 105.18806626 16.04197013 95.92818236 C16.04041708 90.41155801 16.04018699 84.89494256 16.04350662 79.37831879 C16.0464091 74.19404022 16.04436619 69.00978598 16.03861237 63.82551003 C16.03729775 61.93094485 16.03765664 60.03637761 16.03987503 58.14181328 C17.00833861 38.46795683 17.00833861 38.46795683 10.9072113 20.3742218 C6.650422 16.42890489 1.93850301 15.44580733 -3.60450745 14.2804718 C-6.59911345 13.18981467 -7.56333842 12.13959149 -9.0927887 9.3742218 C-8.96643381 6.27852703 -8.72594134 4.22441037 -6.85640049 1.71401691 C-4.47809968 -0.0927502 -2.97158681 -0.00054391 0 0 Z " fill="#000000" transform="translate(1859.092788696289,59.62577819824219)"/>
<path d="M0 0 C1.05300293 -0.00701431 2.10600586 -0.01402863 3.19091797 -0.02125549 C4.34583237 -0.01361176 5.50074677 -0.00596802 6.69065857 0.00190735 C8.51529129 -0.00356865 8.51529129 -0.00356865 10.37678528 -0.00915527 C13.71361593 -0.01587886 17.04989034 -0.00913827 20.38666654 0.00417686 C23.87576933 0.01548485 27.36485754 0.01138442 30.85397339 0.00942993 C36.7125071 0.00854686 42.57092512 0.0196309 48.4294281 0.03804016 C55.20788686 0.05921791 61.98617623 0.06271567 68.76466137 0.0564782 C75.28030423 0.05078904 81.79588729 0.05642426 88.31152153 0.06765175 C91.08701111 0.07230269 93.86246419 0.07316947 96.63795662 0.0710659 C100.50975509 0.06883731 104.38139155 0.08327247 108.25315857 0.0995636 C109.4100972 0.09708618 110.56703583 0.09460876 111.7590332 0.09205627 C112.80921631 0.09914108 113.85939941 0.10622589 114.94140625 0.11352539 C115.85745919 0.11557826 116.77351213 0.11763113 117.71732426 0.11974621 C119.9072113 0.3742218 119.9072113 0.3742218 121.9072113 2.3742218 C122.16117859 4.91706848 122.16117859 4.91706848 122.16600037 8.16914368 C122.17230469 9.3838031 122.17860901 10.59846252 122.18510437 11.84992981 C122.17903168 13.8264856 122.17903168 13.8264856 122.1728363 15.8429718 C122.17418307 17.20295786 122.17612369 18.56294345 122.17863464 19.92292786 C122.18158539 22.77441487 122.17728995 25.62577667 122.16795349 28.47724915 C122.15655885 32.13604957 122.1631186 35.7945566 122.17509842 39.45334625 C122.18231842 42.26200072 122.18002848 45.0705854 122.17484283 47.87924194 C122.17285592 49.88566783 122.17893993 51.8920964 122.18510437 53.89851379 C122.17564789 55.72050293 122.17564789 55.72050293 122.16600037 57.57929993 C122.16440918 58.65248474 122.16281799 59.72566956 122.16117859 60.83137512 C121.9072113 63.3742218 121.9072113 63.3742218 119.9072113 65.3742218 C116.4072113 65.6242218 116.4072113 65.6242218 112.9072113 65.3742218 C110.38197289 62.84898339 110.5242219 61.64172659 110.1962738 58.1320343 C110.03409363 56.54020325 110.03409363 56.54020325 109.86863708 54.91621399 C109.70210632 53.22480286 109.70210632 53.22480286 109.5322113 51.4992218 C108.19403905 36.52177476 108.19403905 36.52177476 101.5322113 23.3742218 C100.6659613 22.7142218 99.7997113 22.0542218 98.9072113 21.3742218 C98.1028363 20.6729718 97.2984613 19.9717218 96.4697113 19.2492218 C87.43371167 13.57890385 74.78841377 13.88903727 64.45384216 13.98310852 C62.31462718 13.99945164 60.17723523 13.98301987 58.03807068 13.96406555 C56.65981136 13.96604422 55.28155315 13.96988005 53.90330505 13.9757843 C52.67797058 13.97916809 51.45263611 13.98255188 50.19017029 13.98603821 C46.60116677 14.41040912 44.70531723 15.10295052 41.9072113 17.3742218 C40.9356252 20.2188656 40.77999344 22.85574239 40.77349854 25.84576416 C40.76923355 26.73593735 40.76496857 27.62611053 40.76057434 28.54325867 C40.76102753 29.51220062 40.76148071 30.48114258 40.76194763 31.47944641 C40.75858902 32.50587753 40.75523041 33.53230865 40.75177002 34.58984375 C40.74226514 37.98542997 40.74031721 41.38096686 40.73924255 44.77656555 C40.73602994 47.13541687 40.73266586 49.494268 40.72915649 51.8531189 C40.72316659 56.79855308 40.72131648 61.74396979 40.72190857 66.68940735 C40.72201025 73.02923841 40.70835133 79.36895763 40.69113636 85.70876217 C40.68002397 90.58061234 40.67798912 95.4524354 40.6785183 100.32429695 C40.67733729 102.66189014 40.67290878 104.99948401 40.66518593 107.33706474 C40.65540041 110.6046574 40.65825838 113.87200617 40.66429138 117.13960266 C40.65867187 118.10652039 40.65305237 119.07343811 40.64726257 120.06965637 C40.64630583 126.46055785 40.64630583 126.46055785 42.9072113 132.3742218 C47.89677991 134.75210268 54.90539474 133.56013497 60.38645935 133.55952454 C62.57001139 133.56169722 64.75304633 133.57983168 66.93650818 133.59883118 C79.51766639 133.97295916 79.51766639 133.97295916 90.7822113 129.2492218 C95.37879304 123.0303171 96.38267228 116.50096265 96.9697113 108.9992218 C97.64546196 100.63597115 97.64546196 100.63597115 99.9072113 98.3742218 C103.95982418 98.02931858 105.45475307 98.07258298 108.9072113 100.3742218 C109.19357061 103.06626328 109.28556275 105.52741736 109.24778748 108.22041321 C109.2484446 109.43517082 109.2484446 109.43517082 109.24911499 110.67446899 C109.24702045 113.35848375 109.22365848 116.04187832 109.20018005 118.7257843 C109.19458646 120.58380288 109.19031524 122.44182588 109.18731689 124.29985046 C109.1758495 129.19575669 109.14636611 134.09139692 109.11320496 138.98719788 C109.08254482 143.98075257 109.06882025 148.97435016 109.05369568 153.9679718 C109.02149815 163.77017216 108.97027901 173.57217488 108.9072113 183.3742218 C105.16100483 185.49517601 103.11655089 185.40317148 98.9072113 184.3742218 C97.27571854 182.74272903 97.64541239 180.81434462 97.51268005 178.5617218 C97.44371521 177.56785461 97.37475037 176.57398743 97.30369568 175.55000305 C97.16646939 173.46467645 97.03856401 171.37871141 96.92088318 169.29219055 C96.44617339 162.74707685 95.44995564 157.00820673 91.9072113 151.3742218 C86.00706877 146.45743636 80.95879837 146.216864 73.52830505 146.20625305 C72.7198262 146.20292465 71.91134735 146.19959625 71.07836914 146.19616699 C69.37296618 146.19111396 67.66755338 146.18875816 65.96214294 146.18891907 C63.35056911 146.18672672 60.7394139 146.16853812 58.12791443 146.14961243 C56.46971275 146.14667936 54.81150906 146.14469399 53.15330505 146.14375305 C52.37200729 146.13656754 51.59070953 146.12938202 50.78573608 146.12197876 C46.95697418 146.13816786 45.17012582 146.19894546 41.9072113 148.3742218 C40.32253719 152.15059068 40.76714532 156.43784521 40.77781677 160.46894836 C40.77606445 161.28263885 40.77431213 162.09632935 40.77250671 162.93467712 C40.76810287 165.62808868 40.77102434 168.32143456 40.7743988 171.0148468 C40.77372456 172.89894117 40.77275353 174.78303545 40.77149963 176.66712952 C40.770024 180.62484054 40.77217004 184.58252902 40.77684021 188.54023743 C40.78249053 193.56962544 40.77928776 198.59895953 40.77326775 203.62834549 C40.76961821 207.52699677 40.77082147 211.42563572 40.77339554 215.32428741 C40.77405518 217.1755092 40.7732707 219.02673217 40.77091599 220.87795258 C39.50079929 247.02687316 39.50079929 247.02687316 48.3447113 270.4992218 C49.1903363 271.1179718 50.0359613 271.7367218 50.9072113 272.3742218 C51.6084613 272.9310968 52.3097113 273.4879718 53.0322113 274.0617218 C65.37363108 279.69584822 81.34347656 278.63749426 93.9072113 274.3742218 C103.64748475 270.11796786 109.32893063 263.6759907 113.3212738 253.89179993 C116.08684002 246.677583 118.05332582 239.34497122 119.61497498 231.78242493 C120.71219481 226.56923829 120.71219481 226.56923829 122.9072113 224.3742218 C124.7822113 224.1085968 124.7822113 224.1085968 126.9072113 224.1242218 C127.6084613 224.11906555 128.3097113 224.1139093 129.0322113 224.1085968 C130.9072113 224.3742218 130.9072113 224.3742218 132.9072113 226.3742218 C133.46762083 232.73554032 132.04963416 238.81589784 130.82518005 245.0382843 C130.61033463 246.14851959 130.3954892 247.25875488 130.1741333 248.40263367 C129.71929524 250.74147482 129.26102883 253.07965156 128.79954529 255.41719055 C128.09617421 258.99178717 127.41030455 262.56945187 126.72557068 266.1476593 C126.28066594 268.42390817 125.8347371 270.69995717 125.38768005 272.9757843 C125.18442612 274.04358124 124.98117218 275.11137817 124.77175903 276.21153259 C124.57177811 277.20961945 124.37179718 278.2077063 124.16575623 279.23603821 C123.99476913 280.10983124 123.82378204 280.98362427 123.64761353 281.88389587 C122.79705643 284.74472521 121.59920437 286.92174096 119.9072113 289.3742218 C117.43625672 290.60969909 115.78870353 290.51100493 113.02406311 290.52812195 C111.99215347 290.53672241 110.96024384 290.54532288 109.89706421 290.55418396 C108.19206505 290.56057388 108.19206505 290.56057388 106.45262146 290.5670929 C105.2590654 290.57527039 104.06550934 290.58344788 102.83578491 290.59187317 C98.87262817 290.61675601 94.90947886 290.63339875 90.9462738 290.6476593 C89.58245715 290.65301883 88.21864057 290.65839634 86.85482407 290.66379166 C81.18274921 290.68541836 75.5106772 290.70415605 69.83857155 290.71541405 C61.70632507 290.73166071 53.57455582 290.76485734 45.44248927 290.82181489 C39.72608542 290.86049015 34.00980936 290.88004372 28.2932781 290.88533461 C24.87800174 290.88899103 21.46323441 290.90104168 18.04809952 290.93343735 C14.23855643 290.96489948 10.43022799 290.96515356 6.62059021 290.9577179 C5.48797256 290.97412323 4.35535492 290.99052856 3.18841553 291.00743103 C-4.42507847 290.94639036 -4.42507847 290.94639036 -7.82487488 288.0330658 C-9.46357012 284.59668477 -9.33682979 282.95083993 -8.0927887 279.3742218 C-5.28416054 276.8220608 -2.81163943 275.86683045 0.8447113 274.9992218 C6.79611553 273.31007325 9.58089375 270.69527753 12.6572113 265.3117218 C18.05362164 252.63015752 16.05257366 235.87013968 16.03660583 222.29707336 C16.03796428 220.33391284 16.03974669 218.37075257 16.04191589 216.40759277 C16.04643632 211.12483871 16.04472338 205.84210438 16.04153681 200.55935001 C16.03898658 195.00632745 16.04135798 189.45330645 16.04292297 183.90028381 C16.04473633 174.58348795 16.04235966 165.26670005 16.0375824 155.9499054 C16.03213499 145.20253941 16.03390928 134.45519238 16.0394088 123.70782685 C16.0439561 114.44794371 16.04458276 105.18806626 16.04197013 95.92818236 C16.04041708 90.41155801 16.04018699 84.89494256 16.04350662 79.37831879 C16.0464091 74.19404022 16.04436619 69.00978598 16.03861237 63.82551003 C16.03729775 61.93094485 16.03765664 60.03637761 16.03987503 58.14181328 C17.00833861 38.46795683 17.00833861 38.46795683 10.9072113 20.3742218 C6.650422 16.42890489 1.93850301 15.44580733 -3.60450745 14.2804718 C-6.59911345 13.18981467 -7.56333842 12.13959149 -9.0927887 9.3742218 C-8.96643381 6.27852703 -8.72594134 4.22441037 -6.85640049 1.71401691 C-4.47809968 -0.0927502 -2.97158681 -0.00054391 0 0 Z " fill="#000000" transform="translate(1137.092788696289,59.62577819824219)"/>
<path d="M0 0 C1.24501785 -0.01606293 2.49003571 -0.03212585 3.77278137 -0.04867554 C5.13847166 -0.06016254 6.50416958 -0.07077116 7.86987305 -0.08056641 C8.90033784 -0.08855192 8.90033784 -0.08855192 9.9516201 -0.09669876 C13.58834085 -0.12342397 17.22502736 -0.14280013 20.86181641 -0.15722656 C23.86993838 -0.17056419 26.87738169 -0.19841218 29.88525391 -0.23925781 C33.51863957 -0.28859735 37.15140983 -0.31334891 40.7851162 -0.32045364 C42.16822208 -0.32716283 43.55131442 -0.3423767 44.9342289 -0.36634445 C46.87257737 -0.39801977 48.81139774 -0.3950293 50.75 -0.390625 C51.85205276 -0.39871185 52.95410553 -0.40679871 54.08955383 -0.41513062 C58.05903289 0.39487754 59.55871396 2.08441673 62.0690918 5.19287109 C62.6940918 8.25537109 62.6940918 8.25537109 62.0690918 11.19287109 C58.62027399 15.21649187 54.34107218 16.16887589 49.3737793 17.38427734 C46.72123169 18.31491693 45.65314946 18.86597894 44.0690918 21.19287109 C42.7606555 27.04253235 43.43331923 31.66931991 44.69091797 37.40063477 C44.87482936 38.27486934 45.05874075 39.14910391 45.24822521 40.04983044 C47.25425441 49.39670744 49.65552104 58.63418898 52.11987305 67.86865234 C52.61271465 69.73360139 53.10501816 71.5986927 53.59683228 73.46391296 C54.91244299 78.44753526 56.2352949 83.42920784 57.55961227 88.41052246 C58.94738703 93.63565606 60.32834209 98.86259145 61.70996094 104.08935547 C64.00300751 112.76100024 66.29991951 121.43161254 68.59936523 130.1015625 C71.72413893 141.88455869 74.83831623 153.67033425 77.94867134 165.45714378 C81.9841412 180.74943822 86.01984977 196.04167492 90.06400681 211.33167458 C90.49596877 212.96522398 90.92769051 214.59883694 91.35914993 216.23251915 C91.9479192 218.4616661 92.53756563 220.69057923 93.12744141 222.91943359 C93.45618759 224.16289551 93.78493378 225.40635742 94.12364197 226.6875 C95.0711051 230.20033565 96.06053503 233.69719018 97.0690918 237.19287109 C97.7290918 237.19287109 98.3890918 237.19287109 99.0690918 237.19287109 C111.45458725 191.42725112 123.40882541 145.55071626 135.34399414 99.66601562 C137.37989935 91.83903443 139.41895367 84.01288146 141.46099854 76.1875 C142.70264582 71.42922522 143.94322886 66.67067346 145.18353271 61.91204834 C145.72564625 59.83288114 146.26815739 57.75381757 146.81109619 55.67486572 C147.53254239 52.91168148 148.25225091 50.14805092 148.97143555 47.38427734 C149.17436722 46.60874008 149.37729889 45.83320282 149.58638 45.03416443 C151.58409231 37.34103089 152.99882125 30.17304894 152.0690918 22.19287109 C149.43995351 17.89861189 146.58859703 16.91912335 141.9440918 15.56787109 C141.09588867 15.36935547 140.24768555 15.17083984 139.3737793 14.96630859 C136.8115227 14.10643265 135.68703872 13.34154582 134.0690918 11.19287109 C133.5690918 7.75537109 133.5690918 7.75537109 134.0690918 4.19287109 C136.87766699 1.15249411 138.52077986 0.25790483 142.65893555 -0.23291016 C144.10856194 -0.21728442 145.55804632 -0.17773943 147.0065918 -0.11962891 C147.80202393 -0.10125977 148.59745605 -0.08289062 149.41699219 -0.06396484 C151.23876393 -0.01848419 153.06031531 0.0364017 154.8815918 0.09863281 C157.86073875 0.18671115 160.83837352 0.23331826 163.81858826 0.26594543 C166.53675857 0.29883221 169.25439625 0.35034833 171.97219849 0.40542603 C173.32421511 0.43031126 174.67635199 0.44937107 176.02853394 0.4624939 C177.94730574 0.48389525 179.86570343 0.53320908 181.78393555 0.58349609 C183.45637329 0.61491699 183.45637329 0.61491699 185.16259766 0.64697266 C188.71087817 1.31341157 189.94630118 2.30744948 192.0690918 5.19287109 C192.0690918 8.83690444 191.98437482 11.16775411 189.5065918 13.94287109 C187.37914723 15.03386831 185.45645561 15.7161462 183.1940918 16.44287109 C177.45057936 18.5527328 174.49952763 22.16060105 171.91381836 27.6418457 C168.05868699 37.40416619 165.46664264 47.4249207 162.8565979 57.57717896 C161.3330204 63.49792377 159.7810948 69.41127079 158.2331543 75.32568359 C157.89985611 76.60147781 157.56655792 77.87727203 157.22315979 79.19172668 C153.39887019 93.81480873 149.44850218 108.4036232 145.49487686 122.99216461 C144.46136096 126.80614938 143.4287256 130.62037255 142.39599609 134.43457031 C141.96729403 136.01785381 141.53858813 137.60113627 141.10987854 139.18441772 C140.89364901 139.98298565 140.67741947 140.78155357 140.45463753 141.60432053 C139.78468313 144.07833551 139.11456773 146.55230685 138.44444275 149.02627563 C134.9466436 161.94132218 131.45867061 174.85900875 127.9738369 187.77755928 C127.06494435 191.14689022 126.15593841 194.51619054 125.24690247 197.88548279 C121.65734738 211.19011942 121.65734738 211.19011942 118.06924438 224.49514771 C115.11416364 235.45462169 112.15587672 246.41320685 109.18680286 257.36889935 C107.8388023 262.3440801 106.4964467 267.32071694 105.16056442 272.29916477 C104.24465263 275.70655324 103.3203511 279.11165122 102.3972168 282.51708984 C102.08121521 283.70293167 101.76521362 284.8887735 101.43963623 286.11054993 C101.00726654 287.69563606 101.00726654 287.69563606 100.56616211 289.31274414 C100.32263 290.21687546 100.0790979 291.12100677 99.82818604 292.05253601 C99.0690918 294.19287109 99.0690918 294.19287109 97.0690918 296.19287109 C94.38069795 296.46279015 91.77767243 296.28024466 89.0690918 296.19287109 C86.93722533 291.4483033 85.28465158 286.82333748 83.90625 281.79248047 C83.70974759 281.08072474 83.51324518 280.368969 83.31078815 279.63564491 C82.65909926 277.27057214 82.01450764 274.90362545 81.36987305 272.53662109 C80.90257615 270.83539785 80.43482132 269.13430033 79.96664429 267.43331909 C78.96107028 263.77621657 77.95860801 260.11828077 76.95858765 256.45965576 C75.36138025 250.61629364 73.75740472 244.77480279 72.15234375 238.93359375 C70.19311246 231.8018732 68.23544068 224.66972829 66.27975368 217.53703499 C62.8019898 204.85396516 59.31086595 192.17462308 55.8112793 179.49755859 C55.5587867 178.58283531 55.3062941 177.66811203 55.04615021 176.72566986 C53.53317942 171.24471481 52.01982421 165.76386595 50.50634766 160.28305054 C48.27392264 152.19850618 46.04210731 144.11379377 43.8112793 136.02880859 C43.57069542 135.15693153 43.33011154 134.28505447 43.08223724 133.3867569 C39.77252623 121.39051222 36.47605445 109.39070014 33.19032097 97.38786697 C31.8761737 92.58862896 30.56007341 87.78992599 29.24408054 82.99119377 C28.22420535 79.27119426 27.20592179 75.55077469 26.1914978 71.82928467 C20.26823029 42.92756744 20.26823029 42.92756744 5.3190918 18.75537109 C1.72566289 17.02776104 -1.79792012 15.95694342 -5.66137695 15.00146484 C-8.17681393 14.10525924 -9.33383664 13.32059902 -10.9309082 11.19287109 C-11.58529914 5.08522237 -11.58529914 5.08522237 -9.5559082 2.31787109 C-6.26320916 0.03831022 -3.98491221 0.04660289 0 0 Z " fill="#000000" transform="translate(922.930908203125,59.80712890625)"/>
<path d="M0 0 C3.80029332 3.46543141 5.27917356 6.65897802 5.8359375 11.7734375 C5.91801875 18.68467859 5.84896003 23.19407681 1.5 28.6875 C-3.22178782 33.39695939 -7.05757513 34.86041554 -13.6875 35.0625 C-19.95945115 34.99273414 -23.94690216 34.06878283 -28.5 29.6875 C-32.78939622 25.22989217 -33.83211301 21.2043657 -34 15.0625 C-33.69281338 8.23350503 -32.28662391 4.21237336 -27.375 -0.5625 C-19.06977282 -7.17882354 -8.09372665 -6.70330345 0 0 Z " fill="#000000" transform="translate(1532.5,317.3125)"/>
</svg>
